<?xml version="1.0" encoding="UTF-8"?>
<svg id="Calque_1" data-name="Calque 1" xmlns="http://www.w3.org/2000/svg" version="1.1" viewBox="0 0 429 70">
  <defs>
    <style>
      .cls-1 {
        fill: #0054a6;
      }

      .cls-1, .cls-2 {
        stroke-width: 0px;
      }

      .cls-3 {
        font-family: Inter-SemiBold, Inter;
        font-size: 52.9px;
        font-weight: 600;
      }

      .cls-3, .cls-2 {
        fill: #4a4a4a;
      }
    </style>
  </defs>
  <g id="SvgjsG1951">
    <g>
      <path class="cls-1" d="M52.5,15.3l-17.9,17.9c-.6.6-.6,1.6,0,2.2s1.6.6,2.2,0l17.9-17.9,5.4.7,9.9-9.9-7.3-1-1-7.3-10.1,10.1.9,5.3Z"/>
      <path class="cls-1" d="M61.3,21.2c2.2,4.1,3.5,8.8,3.5,13.9,0,16.3-13.3,29.6-29.6,29.6S5.4,51.4,5.4,35,18.7,5.4,35,5.4s9.6,1.2,13.9,3.4l3.9-3.9C47.6,1.8,41.4,0,35,0,15.8,0,0,15.8,0,35s15.8,35,35,35,35-15.8,35-35-1.8-12.5-4.8-17.8l-3.9,3.9Z"/>
      <path class="cls-1" d="M48.7,15c-3.9-2.8-8.6-4.2-13.7-4.2-13.4,0-24.2,10.8-24.2,24.2s10.8,24.2,24.2,24.2,24.2-10.8,24.2-24.2-1.6-9.8-4.2-13.7l-3.9,3.9c1.8,2.9,2.8,6.3,2.8,9.8,0,10.4-8.5,18.8-18.8,18.8s-18.8-8.5-18.8-18.8,8.5-18.8,18.8-18.8,7,1,9.8,2.8l3.9-3.9Z"/>
      <path class="cls-1" d="M35,27c.6,0,1.2,0,1.6.1l4.2-4.2c-1.8-.9-3.8-1.3-5.8-1.3-7.4,0-13.4,6-13.4,13.4s6,13.4,13.4,13.4,13.4-6,13.4-13.4-.4-4.1-1.3-5.8l-4.2,4.2h0c.1.6.1,1,.1,1.6,0,4.5-3.6,8-8,8s-8-3.6-8-8,3.5-8,8-8Z"/>
    </g>
  </g>
  <g id="SvgjsG1952">
    <path class="cls-2" d="M98.7,51.9c.2.4-.2.7-.6,1-.9.6-3,1-5,1-5.9,0-8.1-3-8.1-10.1v-11.6h-3.3c-.5,0-.9-.3-.9-.9v-.9c0-.4.1-.8.4-1.1,3.2-2.6,5.7-5.3,7.9-10.9.2-.4.3-.6.6-.6h.6c.4,0,.6.2.6.7v7.9h5.8c.5,0,.9.4.9.9v4c0,.5-.4.9-.9.9h-4.8c-.4,0-.8,0-1-.2v11.2c0,3.2.4,5,3.1,5s1.9-.2,2.6-.3,1.1.1,1.2.7l.7,3.3ZM123.5,27.7c.6.4.8.7.4,1.3l-2.3,3.3c-.3.4-.7.5-1.2.4-1.2-.6-2.2-1-4-1s-4.7.8-6.2,4.2v16.9c0,.5-.3.9-.8.9h-4.4c-.5,0-.8-.4-.8-.9v-25.5c0-.5.4-.9.8-.9h3c1.3,0,2.2,1.4,2.2,2.4v.4c1.9-1.8,4.2-3,7.3-3s4.9.9,6,1.6h0ZM151.7,52.4c-.7-5.4-.8-10.4-.6-15.7.3-6.5-3.3-10.7-10-10.7s-9,1.3-11.7,2.8c-.5.3-.8.8-.6,1.3l1.4,3.2c.2.6.6.7,1.3.4,3.5-1.6,6.4-2.4,9.2-2.4s4.7,1.2,4.6,4.3c-10.2,1.8-18,3.6-18,10.8s3.5,7.6,9.1,7.6,7.1-1.4,9.4-3.2c.3,1.7.8,2.9,1.9,2.9h3.3c.5,0,.7-.6.6-1.2h0ZM137.5,49.2c-2.3,0-4-.8-4-2.9,0-3.4,6.2-4.5,11.7-5.6,0,1.8,0,4.2,0,5.8-1.8,1.4-4.9,2.6-7.7,2.6ZM184.6,52.5c.1.6,0,1.2-.6,1.2h-3.6c-1.4,0-2.2-.9-2.2-2.2v-14.3c0-3.6-2.5-5.7-6.2-5.7s-5.8,1.5-8,3.6v17.8c0,.5-.4.9-.9.9h-4.3c-.5,0-.8-.4-.8-.9v-25.5c0-.5.3-.9.8-.9h3c1.3,0,2.2,1.4,2.2,2.4v.6c2.2-1.7,5-3.3,8.8-3.3,5.7,0,11.4,3.6,11.4,10.5v12.2c0,1.5.2,2.7.3,3.8h0ZM190,49.7l1.9-3c.4-.6.7-.8,1.3-.5,0,.1,3.4,2.1,7.1,2.1s4.3-1.3,4.3-2.5c0-1.9-2-2.5-5.7-3.5-5.2-1.4-8.7-4.1-8.7-8.3s3.5-8,10.1-8,6.8,1.4,9,2.6c.6.3.8.8.5,1.3l-2,3.1c-.3.4-.7.6-1.2.4-1.4-.7-3.7-1.8-6.2-1.8s-3.9,1.5-3.9,2.5c0,1.6,2.3,2.4,5.1,3.1,4.9,1.3,9.8,3.7,9.8,8.5s-4.4,8.2-11,8.2-8.6-2.2-10-3.3c-.4-.2-.5-.8-.3-1h0ZM239.7,48.7c.3.5.3.9,0,1.3-2.4,2.3-5.6,4.1-9.5,4.1-7.6,0-14.1-6.1-14.1-13.9s6.5-14.1,14.1-14.1,7,1.6,9.3,3.9c.4.4.4.8,0,1.3l-2.1,2.6c-.3.4-.7.5-1.3,0-1.4-1.4-3.3-2.2-5.7-2.2-5.2,0-8.5,4.1-8.5,8.4s3.3,8.4,8.5,8.4,4.2-.9,5.8-2.5c.6-.5,1-.3,1.4.1l2.1,2.6ZM257.5,54c7.7,0,14.1-6.1,14.1-14s-6.4-14.1-14.1-14.1-14.1,6-14.1,14.1,6.4,14,14.1,14ZM257.5,48.4c-4.7,0-8.3-3.9-8.3-8.3s3.5-8.5,8.3-8.5,8.3,3.9,8.3,8.5-3.5,8.3-8.3,8.3ZM303,52.5c.1.6,0,1.2-.6,1.2h-3.6c-1.4,0-2.2-.9-2.2-2.2v-14.3c0-3.6-2.5-5.7-6.2-5.7s-5.8,1.5-8,3.6v17.8c0,.5-.4.9-.9.9h-4.3c-.5,0-.8-.4-.8-.9v-25.5c0-.5.3-.9.8-.9h3c1.3,0,2.2,1.4,2.2,2.4v.6c2.2-1.7,5-3.3,8.8-3.3,5.7,0,11.4,3.6,11.4,10.5v12.2c0,1.5.2,2.7.3,3.8h0ZM335.6,52.5c.1.6,0,1.2-.6,1.2h-3.6c-1.4,0-2.2-.9-2.2-2.2v-14.3c0-3.6-2.5-5.7-6.2-5.7s-5.8,1.5-8,3.6v17.8c0,.5-.4.9-.9.9h-4.3c-.5,0-.8-.4-.8-.9v-25.5c0-.5.3-.9.8-.9h3c1.3,0,2.2,1.4,2.2,2.4v.6c2.2-1.7,5-3.3,8.8-3.3,5.7,0,11.4,3.6,11.4,10.5v12.2c0,1.5.2,2.7.3,3.8h0ZM364,42.2c2,0,3.4-1,3.4-3.3,0-6.8-5.2-13-13.3-13s-13.7,6.1-13.7,14,6.3,13.9,14,13.9,8.8-2,11.1-5.2c.3-.4.2-.8-.1-1.2l-1-1.4c-.4-.6-.9-.5-1.4-.2-1.8,1.4-4.7,2.6-7.9,2.6s-7.7-2.8-8.3-6.4h17.3,0ZM346.7,37.5c.2-2.6,2.7-6.1,7.2-6.1s6.9,3.5,7.1,6.1h-14.3,0ZM395.3,48.7c.3.5.3.9,0,1.3-2.4,2.3-5.6,4.1-9.5,4.1-7.6,0-14.1-6.1-14.1-13.9s6.5-14.1,14.1-14.1,7,1.6,9.3,3.9c.4.4.4.8,0,1.3l-2.1,2.6c-.3.4-.7.5-1.3,0-1.4-1.4-3.3-2.2-5.7-2.2-5.2,0-8.5,4.1-8.5,8.4s3.3,8.4,8.5,8.4,4.2-.9,5.8-2.5c.6-.5,1-.3,1.4.1l2.1,2.6ZM417,51.9c.2.4-.2.7-.6,1-.9.6-3,1-5,1-5.9,0-8.1-3-8.1-10.1v-11.6h-3.3c-.5,0-.9-.3-.9-.9v-.9c0-.4.1-.8.4-1.1,3.2-2.6,5.7-5.3,7.9-10.9.2-.4.3-.6.6-.6h.6c.4,0,.6.2.6.7v7.9h5.8c.5,0,.9.4.9.9v4c0,.5-.4.9-.9.9h-4.8c-.4,0-.8,0-1-.2v11.2c0,3.2.4,5,3.1,5s1.9-.2,2.6-.3,1.1.1,1.2.7l.7,3.3Z"/>
  </g>
  <text class="cls-3" transform="translate(-2.4 254.9)"><tspan x="0" y="0">transconnect</tspan></text>
</svg>