<?xml version="1.0" standalone="no"?>
<!DOCTYPE svg PUBLIC "-//W3C//DTD SVG 20010904//EN"
 "http://www.w3.org/TR/2001/REC-SVG-20010904/DTD/svg10.dtd">
<svg version="1.0" xmlns="http://www.w3.org/2000/svg"
 width="512.000000pt" height="512.000000pt" viewBox="0 0 512.000000 512.000000"
 preserveAspectRatio="xMidYMid meet">
<metadata>
Created by potrace 1.14, written by Peter Selinger 2001-2017
</metadata>
<g transform="translate(0.000000,512.000000) scale(0.100000,-0.100000)"
fill="#000000" stroke="none">
<path d="M2385 5060 c-390 -41 -746 -162 -1065 -362 -82 -52 -225 -151 -240
-168 -3 -3 -34 -30 -69 -60 -97 -83 -214 -201 -306 -311 -46 -54 -155 -209
-199 -282 -179 -296 -294 -625 -340 -972 -10 -75 -13 -178 -11 -325 3 -246 6
-277 41 -454 184 -925 900 -1678 1818 -1912 56 -14 110 -28 121 -30 46 -8 162
-25 214 -32 74 -9 460 -9 536 1 204 25 427 81 605 150 114 44 343 155 348 169
2 4 9 8 15 8 17 0 224 143 313 215 374 310 657 725 798 1176 20 63 39 125 42
139 23 104 54 290 61 360 14 151 5 892 -12 942 -2 7 -6 38 -9 68 -17 170 -52
235 -176 327 -31 22 -71 63 -90 91 -19 29 -38 52 -42 52 -4 0 -68 -60 -141
-134 l-134 -135 34 -68 c73 -150 152 -386 178 -528 2 -16 7 -40 9 -52 21 -104
29 -438 13 -575 -18 -168 -87 -427 -149 -568 -34 -77 -109 -224 -129 -252 -10
-14 -19 -29 -19 -32 0 -3 -21 -36 -46 -74 -161 -232 -355 -422 -588 -577 -279
-184 -617 -304 -941 -333 -142 -13 -384 -6 -500 13 -84 14 -114 19 -160 29
-65 13 -223 63 -309 97 -326 129 -645 364 -861 634 -22 28 -42 52 -46 55 -24
22 -160 246 -203 334 -148 304 -213 582 -214 916 -1 337 66 625 213 925 314
639 928 1070 1640 1152 136 16 812 7 906 -12 13 -3 36 -7 51 -10 66 -12 86
-29 141 -115 12 -19 41 -48 65 -64 l42 -30 138 138 c132 132 136 138 117 152
-41 32 -304 153 -418 193 -160 55 -336 99 -470 116 -18 2 -50 7 -72 10 -61 10
-421 13 -500 5z"/>
<path d="M4134 4709 c-204 -204 -349 -357 -348 -367 1 -28 15 -115 19 -121 1
-3 6 -31 10 -61 4 -30 8 -57 10 -60 2 -3 6 -29 10 -59 l7 -53 -638 -638 c-351
-351 -641 -646 -645 -657 -13 -36 -2 -85 27 -114 27 -27 54 -34 109 -30 12 0
280 261 665 645 369 368 651 643 660 641 8 -1 56 -8 105 -14 50 -7 104 -14
120 -17 17 -2 55 -6 85 -9 l55 -6 344 345 c190 190 343 347 340 350 -2 2 -92
16 -199 30 -233 31 -299 42 -305 47 -2 3 -9 43 -14 89 -6 47 -13 94 -15 105
-2 12 -7 48 -11 80 -4 33 -9 67 -10 75 -2 8 -6 43 -10 78 -4 34 -10 64 -14 67
-4 2 -165 -153 -357 -346z"/>
<path d="M2390 4295 c-305 -43 -582 -158 -823 -342 -149 -113 -332 -323 -427
-488 -153 -268 -227 -543 -228 -850 -2 -386 109 -724 337 -1035 59 -80 214
-241 296 -307 55 -44 194 -136 265 -175 89 -49 291 -127 365 -142 11 -2 52
-11 90 -20 39 -9 104 -20 145 -25 109 -14 399 -6 503 13 426 80 805 314 1063
656 178 236 301 547 331 840 13 122 4 665 -11 711 -3 7 -8 32 -11 53 -16 114
-39 153 -164 276 l-106 105 -121 -122 c-67 -68 -127 -129 -134 -137 -9 -12 -5
-27 23 -78 67 -119 129 -304 143 -423 4 -27 8 -53 11 -57 5 -10 4 -244 -2
-288 -4 -34 -15 -100 -20 -130 -28 -151 -116 -349 -222 -498 -195 -275 -517
-475 -863 -536 -119 -22 -377 -12 -505 18 -243 58 -461 181 -640 361 -571 576
-502 1498 150 1989 172 130 373 213 605 252 57 10 442 10 535 1 163 -17 188
-27 248 -103 79 -100 67 -103 222 52 74 74 135 138 135 142 0 11 -155 104
-245 147 -78 37 -254 98 -311 108 -16 3 -54 10 -84 16 -30 5 -71 13 -90 16
-76 13 -367 13 -460 0z"/>
<path d="M2528 3545 c-1 -1 -28 -6 -58 -9 -281 -33 -566 -241 -703 -512 -25
-49 -65 -157 -73 -199 -56 -273 -8 -532 141 -754 54 -80 176 -202 256 -254
107 -71 241 -123 372 -145 23 -4 103 -6 177 -6 114 2 149 6 225 29 343 102
587 360 670 710 16 67 19 115 18 295 -1 217 -8 270 -37 270 -9 0 -24 9 -34 20
-19 21 -20 20 -163 -122 l-143 -143 -1 -105 c-4 -273 -155 -479 -409 -558 -80
-24 -245 -21 -326 7 -161 56 -294 181 -350 328 -29 77 -32 98 -35 203 -4 111
22 211 77 296 118 184 290 275 512 270 l85 -2 147 147 147 147 -38 17 c-61 25
-165 54 -230 64 -56 8 -219 13 -227 6z"/>
</g>
</svg>
